<svg xmlns="http://www.w3.org/2000/svg" viewBox="0 0 1600 1000" role="img" aria-label="Calm Japanese-inspired natural background">
  <defs>
    <linearGradient id="paper" x1="0" y1="0" x2="1" y2="1">
      <stop stop-color="#faf8f1"/>
      <stop offset=".58" stop-color="#f3f4ec"/>
      <stop offset="1" stop-color="#e9eee3"/>
    </linearGradient>
    <linearGradient id="hill" x1="0" y1="0" x2="0" y2="1">
      <stop stop-color="#b8c5aa" stop-opacity=".44"/>
      <stop offset="1" stop-color="#dce3d4" stop-opacity=".18"/>
    </linearGradient>
  </defs>
  <rect width="1600" height="1000" fill="url(#paper)"/>
  <circle cx="1360" cy="145" r="76" fill="#d8b986" opacity=".19"/>
  <path d="M700 860C850 690 1000 730 1120 600c115-125 235-90 480-260v660H650z" fill="url(#hill)"/>
  <path d="M1000 1000V520h420v480M1070 520v-92h280v92M1035 520h350" fill="none" stroke="#8f795f" stroke-width="7" opacity=".12"/>
  <path d="M1090 565v330m95-330v330m95-330v330m95-330v330M1025 675h390M1025 785h390" fill="none" stroke="#8f795f" stroke-width="4" opacity=".09"/>
  <path d="M1510 180c-95 85-145 190-170 330" fill="none" stroke="#6e8464" stroke-width="14" stroke-linecap="round" opacity=".16"/>
  <g fill="#78906f" opacity=".15">
    <ellipse cx="1450" cy="245" rx="72" ry="28" transform="rotate(-28 1450 245)"/>
    <ellipse cx="1380" cy="310" rx="66" ry="25" transform="rotate(24 1380 310)"/>
    <ellipse cx="1350" cy="390" rx="58" ry="22" transform="rotate(-24 1350 390)"/>
    <ellipse cx="1318" cy="475" rx="52" ry="20" transform="rotate(18 1318 475)"/>
  </g>
  <path d="M0 900c260-65 410-45 650 30 180 57 360 55 550 5 150-40 275-35 400 10v55H0z" fill="#d8dfcf" opacity=".24"/>
</svg>
